<svg width="448" height="300" viewBox="0 0 448 300" fill="none" xmlns="http://www.w3.org/2000/svg">
<path d="M150.842 242.62V269.804L27.3922 212.629V190.571L150.842 133.396V160.58L57.4858 201.337V201.85L150.842 242.62ZM224.167 103.2H17.7028C7.96209 103.2 0.0541992 111.082 0.0541992 120.797V282.403C0.0541992 292.118 7.96209 300 17.7028 300H166.851L224.167 103.2Z" fill="#0652E9"/>
<path d="M420.62 110.198L297.17 166.604V139.42L392.59 98.65V98.1374L297.17 57.3803V30.1961L420.62 86.6023V110.198ZM281.495 0L224.179 196.8H430.297C440.051 196.8 447.946 188.918 447.946 179.203V17.5973C447.946 7.88226 440.051 0 430.297 0H281.495Z" fill="#62E1E9"/>
</svg>
